<mxfile host="app.diagrams.net" modified="2023-11-16T09:44:36.531Z" agent="Mozilla/5.0 (X11; Linux x86_64; Chromium GOST) AppleWebKit/537.36 (KHTML, like Gecko) Chrome/110.0.0.0 Safari/537.36" etag="4ZVGkw-_63SwF028IE0J" version="22.1.2" type="github">
  <diagram name="Flow" id="bWleKqcltJoAPVm_MXC7">
    <mxGraphModel dx="2606" dy="362" grid="1" gridSize="10" guides="1" tooltips="1" connect="1" arrows="1" fold="1" page="0" pageScale="1" pageWidth="827" pageHeight="1169" math="0" shadow="0">
      <root>
        <mxCell id="0" />
        <mxCell id="1" parent="0" />
        <mxCell id="2nIH9Rnh6OpdJeUkmnJ7-2" value="dto" style="rounded=1;whiteSpace=wrap;html=1;fillColor=#fff2cc;strokeColor=none;fontStyle=1" vertex="1" parent="1">
          <mxGeometry x="-52" y="1190" width="55" height="30" as="geometry" />
        </mxCell>
        <mxCell id="2nIH9Rnh6OpdJeUkmnJ7-3" value="id" style="rounded=1;whiteSpace=wrap;html=1;fillColor=#dae8fc;strokeColor=none;fontStyle=1" vertex="1" parent="1">
          <mxGeometry x="290" y="1042" width="45" height="30" as="geometry" />
        </mxCell>
        <mxCell id="2nIH9Rnh6OpdJeUkmnJ7-62" style="edgeStyle=orthogonalEdgeStyle;rounded=0;orthogonalLoop=1;jettySize=auto;html=1;entryX=0;entryY=0.5;entryDx=0;entryDy=0;dashed=1;dashPattern=8 8;fillColor=#dae8fc;strokeColor=#6c8ebf;curved=1;" edge="1" parent="1" source="2nIH9Rnh6OpdJeUkmnJ7-18" target="2nIH9Rnh6OpdJeUkmnJ7-60">
          <mxGeometry relative="1" as="geometry" />
        </mxCell>
        <mxCell id="2nIH9Rnh6OpdJeUkmnJ7-18" value="Model" style="rounded=1;whiteSpace=wrap;html=1;fillColor=#e1d5e7;strokeColor=none;fontStyle=1" vertex="1" parent="1">
          <mxGeometry x="10" y="1190" width="60" height="30" as="geometry" />
        </mxCell>
        <mxCell id="2nIH9Rnh6OpdJeUkmnJ7-19" value="string" style="rounded=1;whiteSpace=wrap;html=1;fillColor=#e1d5e7;strokeColor=none;fontStyle=1" vertex="1" parent="1">
          <mxGeometry x="344" y="1042" width="76" height="30" as="geometry" />
        </mxCell>
        <mxCell id="2nIH9Rnh6OpdJeUkmnJ7-60" value="pages" style="rounded=1;whiteSpace=wrap;html=1;fillColor=#dae8fc;strokeColor=none;fontStyle=1" vertex="1" parent="1">
          <mxGeometry x="120" y="1190" width="55" height="30" as="geometry" />
        </mxCell>
        <mxCell id="2nIH9Rnh6OpdJeUkmnJ7-72" style="edgeStyle=orthogonalEdgeStyle;shape=connector;curved=1;rounded=0;orthogonalLoop=1;jettySize=auto;html=1;entryX=0;entryY=0.5;entryDx=0;entryDy=0;dashed=1;dashPattern=8 8;labelBackgroundColor=default;strokeColor=#6c8ebf;align=center;verticalAlign=middle;fontFamily=Helvetica;fontSize=11;fontColor=default;endArrow=classic;fillColor=#dae8fc;" edge="1" parent="1" source="2nIH9Rnh6OpdJeUkmnJ7-61" target="2nIH9Rnh6OpdJeUkmnJ7-3">
          <mxGeometry relative="1" as="geometry" />
        </mxCell>
        <mxCell id="2nIH9Rnh6OpdJeUkmnJ7-73" style="edgeStyle=orthogonalEdgeStyle;shape=connector;curved=1;rounded=0;orthogonalLoop=1;jettySize=auto;html=1;dashed=1;dashPattern=8 8;labelBackgroundColor=default;strokeColor=#6c8ebf;align=center;verticalAlign=middle;fontFamily=Helvetica;fontSize=11;fontColor=default;endArrow=classic;fillColor=#dae8fc;entryX=0;entryY=0.5;entryDx=0;entryDy=0;" edge="1" parent="1" source="2nIH9Rnh6OpdJeUkmnJ7-61" target="2nIH9Rnh6OpdJeUkmnJ7-68">
          <mxGeometry relative="1" as="geometry" />
        </mxCell>
        <mxCell id="2nIH9Rnh6OpdJeUkmnJ7-74" style="edgeStyle=orthogonalEdgeStyle;shape=connector;curved=1;rounded=0;orthogonalLoop=1;jettySize=auto;html=1;entryX=0;entryY=0.5;entryDx=0;entryDy=0;dashed=1;dashPattern=8 8;labelBackgroundColor=default;strokeColor=#6c8ebf;align=center;verticalAlign=middle;fontFamily=Helvetica;fontSize=11;fontColor=default;endArrow=classic;fillColor=#dae8fc;" edge="1" parent="1" source="2nIH9Rnh6OpdJeUkmnJ7-61" target="2nIH9Rnh6OpdJeUkmnJ7-63">
          <mxGeometry relative="1" as="geometry" />
        </mxCell>
        <mxCell id="2nIH9Rnh6OpdJeUkmnJ7-75" style="edgeStyle=orthogonalEdgeStyle;shape=connector;curved=1;rounded=0;orthogonalLoop=1;jettySize=auto;html=1;entryX=0;entryY=0.5;entryDx=0;entryDy=0;dashed=1;dashPattern=8 8;labelBackgroundColor=default;strokeColor=#6c8ebf;align=center;verticalAlign=middle;fontFamily=Helvetica;fontSize=11;fontColor=default;endArrow=classic;fillColor=#dae8fc;" edge="1" parent="1" source="2nIH9Rnh6OpdJeUkmnJ7-61" target="2nIH9Rnh6OpdJeUkmnJ7-66">
          <mxGeometry relative="1" as="geometry" />
        </mxCell>
        <mxCell id="2nIH9Rnh6OpdJeUkmnJ7-61" value="Page[]" style="rounded=1;whiteSpace=wrap;html=1;fillColor=#e1d5e7;strokeColor=none;fontStyle=1" vertex="1" parent="1">
          <mxGeometry x="180" y="1190" width="60" height="30" as="geometry" />
        </mxCell>
        <mxCell id="2nIH9Rnh6OpdJeUkmnJ7-63" value="nodes" style="rounded=1;whiteSpace=wrap;html=1;fillColor=#dae8fc;strokeColor=none;fontStyle=1" vertex="1" parent="1">
          <mxGeometry x="290" y="1122" width="60" height="30" as="geometry" />
        </mxCell>
        <mxCell id="2nIH9Rnh6OpdJeUkmnJ7-83" style="edgeStyle=orthogonalEdgeStyle;shape=connector;curved=1;rounded=0;orthogonalLoop=1;jettySize=auto;html=1;entryX=0;entryY=0.5;entryDx=0;entryDy=0;dashed=1;dashPattern=8 8;labelBackgroundColor=default;strokeColor=#6c8ebf;align=center;verticalAlign=middle;fontFamily=Helvetica;fontSize=11;fontColor=default;endArrow=classic;fillColor=#dae8fc;" edge="1" parent="1" source="2nIH9Rnh6OpdJeUkmnJ7-64" target="2nIH9Rnh6OpdJeUkmnJ7-77">
          <mxGeometry relative="1" as="geometry" />
        </mxCell>
        <mxCell id="2nIH9Rnh6OpdJeUkmnJ7-84" style="edgeStyle=orthogonalEdgeStyle;shape=connector;curved=1;rounded=0;orthogonalLoop=1;jettySize=auto;html=1;entryX=0;entryY=0.5;entryDx=0;entryDy=0;dashed=1;dashPattern=8 8;labelBackgroundColor=default;strokeColor=#6c8ebf;align=center;verticalAlign=middle;fontFamily=Helvetica;fontSize=11;fontColor=default;endArrow=classic;fillColor=#dae8fc;" edge="1" parent="1" source="2nIH9Rnh6OpdJeUkmnJ7-64" target="2nIH9Rnh6OpdJeUkmnJ7-79">
          <mxGeometry relative="1" as="geometry" />
        </mxCell>
        <mxCell id="2nIH9Rnh6OpdJeUkmnJ7-85" style="edgeStyle=orthogonalEdgeStyle;shape=connector;curved=1;rounded=0;orthogonalLoop=1;jettySize=auto;html=1;entryX=0;entryY=0.5;entryDx=0;entryDy=0;dashed=1;dashPattern=8 8;labelBackgroundColor=default;strokeColor=#6c8ebf;align=center;verticalAlign=middle;fontFamily=Helvetica;fontSize=11;fontColor=default;endArrow=classic;fillColor=#dae8fc;" edge="1" parent="1" source="2nIH9Rnh6OpdJeUkmnJ7-64" target="2nIH9Rnh6OpdJeUkmnJ7-81">
          <mxGeometry relative="1" as="geometry" />
        </mxCell>
        <mxCell id="2nIH9Rnh6OpdJeUkmnJ7-64" value="PageNode[]" style="rounded=1;whiteSpace=wrap;html=1;fillColor=#e1d5e7;strokeColor=none;fontStyle=1" vertex="1" parent="1">
          <mxGeometry x="360" y="1122" width="90" height="30" as="geometry" />
        </mxCell>
        <mxCell id="2nIH9Rnh6OpdJeUkmnJ7-66" value="links" style="rounded=1;whiteSpace=wrap;html=1;fillColor=#dae8fc;strokeColor=none;fontStyle=1" vertex="1" parent="1">
          <mxGeometry x="290" y="1340" width="60" height="30" as="geometry" />
        </mxCell>
        <mxCell id="2nIH9Rnh6OpdJeUkmnJ7-97" style="edgeStyle=orthogonalEdgeStyle;shape=connector;curved=1;rounded=0;orthogonalLoop=1;jettySize=auto;html=1;entryX=0;entryY=0.5;entryDx=0;entryDy=0;dashed=1;dashPattern=8 8;labelBackgroundColor=default;strokeColor=#6c8ebf;align=center;verticalAlign=middle;fontFamily=Helvetica;fontSize=11;fontColor=default;endArrow=classic;fillColor=#dae8fc;" edge="1" parent="1" source="2nIH9Rnh6OpdJeUkmnJ7-67" target="2nIH9Rnh6OpdJeUkmnJ7-95">
          <mxGeometry relative="1" as="geometry" />
        </mxCell>
        <mxCell id="2nIH9Rnh6OpdJeUkmnJ7-110" style="edgeStyle=orthogonalEdgeStyle;shape=connector;curved=1;rounded=0;orthogonalLoop=1;jettySize=auto;html=1;entryX=0;entryY=0.5;entryDx=0;entryDy=0;dashed=1;dashPattern=8 8;labelBackgroundColor=default;strokeColor=#6c8ebf;align=center;verticalAlign=middle;fontFamily=Helvetica;fontSize=11;fontColor=default;endArrow=classic;fillColor=#dae8fc;" edge="1" parent="1" source="2nIH9Rnh6OpdJeUkmnJ7-67" target="2nIH9Rnh6OpdJeUkmnJ7-98">
          <mxGeometry relative="1" as="geometry" />
        </mxCell>
        <mxCell id="2nIH9Rnh6OpdJeUkmnJ7-111" style="edgeStyle=orthogonalEdgeStyle;shape=connector;curved=1;rounded=0;orthogonalLoop=1;jettySize=auto;html=1;entryX=0;entryY=0.5;entryDx=0;entryDy=0;dashed=1;dashPattern=8 8;labelBackgroundColor=default;strokeColor=#6c8ebf;align=center;verticalAlign=middle;fontFamily=Helvetica;fontSize=11;fontColor=default;endArrow=classic;fillColor=#dae8fc;" edge="1" parent="1" source="2nIH9Rnh6OpdJeUkmnJ7-67" target="2nIH9Rnh6OpdJeUkmnJ7-100">
          <mxGeometry relative="1" as="geometry" />
        </mxCell>
        <mxCell id="2nIH9Rnh6OpdJeUkmnJ7-112" style="edgeStyle=orthogonalEdgeStyle;shape=connector;curved=1;rounded=0;orthogonalLoop=1;jettySize=auto;html=1;entryX=0;entryY=0.5;entryDx=0;entryDy=0;dashed=1;dashPattern=8 8;labelBackgroundColor=default;strokeColor=#6c8ebf;align=center;verticalAlign=middle;fontFamily=Helvetica;fontSize=11;fontColor=default;endArrow=classic;fillColor=#dae8fc;" edge="1" parent="1" source="2nIH9Rnh6OpdJeUkmnJ7-67" target="2nIH9Rnh6OpdJeUkmnJ7-102">
          <mxGeometry relative="1" as="geometry" />
        </mxCell>
        <mxCell id="2nIH9Rnh6OpdJeUkmnJ7-113" style="edgeStyle=orthogonalEdgeStyle;shape=connector;curved=1;rounded=0;orthogonalLoop=1;jettySize=auto;html=1;entryX=0;entryY=0.5;entryDx=0;entryDy=0;dashed=1;dashPattern=8 8;labelBackgroundColor=default;strokeColor=#6c8ebf;align=center;verticalAlign=middle;fontFamily=Helvetica;fontSize=11;fontColor=default;endArrow=classic;fillColor=#dae8fc;" edge="1" parent="1" source="2nIH9Rnh6OpdJeUkmnJ7-67" target="2nIH9Rnh6OpdJeUkmnJ7-104">
          <mxGeometry relative="1" as="geometry" />
        </mxCell>
        <mxCell id="2nIH9Rnh6OpdJeUkmnJ7-67" value="Link[]" style="rounded=1;whiteSpace=wrap;html=1;fillColor=#e1d5e7;strokeColor=none;fontStyle=1" vertex="1" parent="1">
          <mxGeometry x="360" y="1340" width="90" height="30" as="geometry" />
        </mxCell>
        <mxCell id="2nIH9Rnh6OpdJeUkmnJ7-68" value="pageName" style="rounded=1;whiteSpace=wrap;html=1;fillColor=#dae8fc;strokeColor=none;fontStyle=1" vertex="1" parent="1">
          <mxGeometry x="290" y="1082" width="80" height="30" as="geometry" />
        </mxCell>
        <mxCell id="2nIH9Rnh6OpdJeUkmnJ7-69" value="string" style="rounded=1;whiteSpace=wrap;html=1;fillColor=#e1d5e7;strokeColor=none;fontStyle=1" vertex="1" parent="1">
          <mxGeometry x="374" y="1082" width="76" height="30" as="geometry" />
        </mxCell>
        <mxCell id="2nIH9Rnh6OpdJeUkmnJ7-77" value="id" style="rounded=1;whiteSpace=wrap;html=1;fillColor=#dae8fc;strokeColor=none;fontStyle=1" vertex="1" parent="1">
          <mxGeometry x="520" y="1082" width="45" height="30" as="geometry" />
        </mxCell>
        <mxCell id="2nIH9Rnh6OpdJeUkmnJ7-78" value="string" style="rounded=1;whiteSpace=wrap;html=1;fillColor=#e1d5e7;strokeColor=none;fontStyle=1" vertex="1" parent="1">
          <mxGeometry x="574" y="1082" width="76" height="30" as="geometry" />
        </mxCell>
        <mxCell id="2nIH9Rnh6OpdJeUkmnJ7-79" value="type" style="rounded=1;whiteSpace=wrap;html=1;fillColor=#dae8fc;strokeColor=none;fontStyle=1" vertex="1" parent="1">
          <mxGeometry x="520" y="1122" width="45" height="30" as="geometry" />
        </mxCell>
        <mxCell id="2nIH9Rnh6OpdJeUkmnJ7-80" value="NodeType" style="rounded=1;whiteSpace=wrap;html=1;fillColor=#e1d5e7;strokeColor=none;fontStyle=1" vertex="1" parent="1">
          <mxGeometry x="574" y="1122" width="76" height="30" as="geometry" />
        </mxCell>
        <mxCell id="2nIH9Rnh6OpdJeUkmnJ7-81" value="position" style="rounded=1;whiteSpace=wrap;html=1;fillColor=#dae8fc;strokeColor=none;fontStyle=1" vertex="1" parent="1">
          <mxGeometry x="520" y="1166" width="70" height="30" as="geometry" />
        </mxCell>
        <mxCell id="2nIH9Rnh6OpdJeUkmnJ7-92" style="edgeStyle=orthogonalEdgeStyle;shape=connector;curved=1;rounded=0;orthogonalLoop=1;jettySize=auto;html=1;entryX=0;entryY=0.5;entryDx=0;entryDy=0;dashed=1;dashPattern=8 8;labelBackgroundColor=default;strokeColor=#6c8ebf;align=center;verticalAlign=middle;fontFamily=Helvetica;fontSize=11;fontColor=default;endArrow=classic;fillColor=#dae8fc;" edge="1" parent="1" source="2nIH9Rnh6OpdJeUkmnJ7-82" target="2nIH9Rnh6OpdJeUkmnJ7-88">
          <mxGeometry relative="1" as="geometry" />
        </mxCell>
        <mxCell id="2nIH9Rnh6OpdJeUkmnJ7-93" style="edgeStyle=orthogonalEdgeStyle;shape=connector;curved=1;rounded=0;orthogonalLoop=1;jettySize=auto;html=1;entryX=0;entryY=0.5;entryDx=0;entryDy=0;dashed=1;dashPattern=8 8;labelBackgroundColor=default;strokeColor=#6c8ebf;align=center;verticalAlign=middle;fontFamily=Helvetica;fontSize=11;fontColor=default;endArrow=classic;fillColor=#dae8fc;" edge="1" parent="1" source="2nIH9Rnh6OpdJeUkmnJ7-82" target="2nIH9Rnh6OpdJeUkmnJ7-86">
          <mxGeometry relative="1" as="geometry" />
        </mxCell>
        <mxCell id="2nIH9Rnh6OpdJeUkmnJ7-94" style="edgeStyle=orthogonalEdgeStyle;shape=connector;curved=1;rounded=0;orthogonalLoop=1;jettySize=auto;html=1;entryX=0;entryY=0.5;entryDx=0;entryDy=0;dashed=1;dashPattern=8 8;labelBackgroundColor=default;strokeColor=#6c8ebf;align=center;verticalAlign=middle;fontFamily=Helvetica;fontSize=11;fontColor=default;endArrow=classic;fillColor=#dae8fc;" edge="1" parent="1" source="2nIH9Rnh6OpdJeUkmnJ7-82" target="2nIH9Rnh6OpdJeUkmnJ7-90">
          <mxGeometry relative="1" as="geometry" />
        </mxCell>
        <mxCell id="2nIH9Rnh6OpdJeUkmnJ7-82" value="Position" style="rounded=1;whiteSpace=wrap;html=1;fillColor=#e1d5e7;strokeColor=none;fontStyle=1" vertex="1" parent="1">
          <mxGeometry x="600" y="1166" width="76" height="30" as="geometry" />
        </mxCell>
        <mxCell id="2nIH9Rnh6OpdJeUkmnJ7-86" value="y" style="rounded=1;whiteSpace=wrap;html=1;fillColor=#dae8fc;strokeColor=none;fontStyle=1" vertex="1" parent="1">
          <mxGeometry x="740" y="1166" width="30" height="30" as="geometry" />
        </mxCell>
        <mxCell id="2nIH9Rnh6OpdJeUkmnJ7-87" value="number" style="rounded=1;whiteSpace=wrap;html=1;fillColor=#e1d5e7;strokeColor=none;fontStyle=1" vertex="1" parent="1">
          <mxGeometry x="780" y="1166" width="70" height="30" as="geometry" />
        </mxCell>
        <mxCell id="2nIH9Rnh6OpdJeUkmnJ7-88" value="x" style="rounded=1;whiteSpace=wrap;html=1;fillColor=#dae8fc;strokeColor=none;fontStyle=1" vertex="1" parent="1">
          <mxGeometry x="740" y="1130" width="30" height="30" as="geometry" />
        </mxCell>
        <mxCell id="2nIH9Rnh6OpdJeUkmnJ7-89" value="number" style="rounded=1;whiteSpace=wrap;html=1;fillColor=#e1d5e7;strokeColor=none;fontStyle=1" vertex="1" parent="1">
          <mxGeometry x="780" y="1130" width="70" height="30" as="geometry" />
        </mxCell>
        <mxCell id="2nIH9Rnh6OpdJeUkmnJ7-90" value="z" style="rounded=1;whiteSpace=wrap;html=1;fillColor=#dae8fc;strokeColor=none;fontStyle=1" vertex="1" parent="1">
          <mxGeometry x="740" y="1204" width="30" height="30" as="geometry" />
        </mxCell>
        <mxCell id="2nIH9Rnh6OpdJeUkmnJ7-91" value="number" style="rounded=1;whiteSpace=wrap;html=1;fillColor=#e1d5e7;strokeColor=none;fontStyle=1" vertex="1" parent="1">
          <mxGeometry x="780" y="1204" width="70" height="30" as="geometry" />
        </mxCell>
        <mxCell id="2nIH9Rnh6OpdJeUkmnJ7-95" value="id" style="rounded=1;whiteSpace=wrap;html=1;fillColor=#dae8fc;strokeColor=none;fontStyle=1" vertex="1" parent="1">
          <mxGeometry x="520" y="1260" width="45" height="30" as="geometry" />
        </mxCell>
        <mxCell id="2nIH9Rnh6OpdJeUkmnJ7-96" value="string" style="rounded=1;whiteSpace=wrap;html=1;fillColor=#e1d5e7;strokeColor=none;fontStyle=1" vertex="1" parent="1">
          <mxGeometry x="574" y="1260" width="76" height="30" as="geometry" />
        </mxCell>
        <mxCell id="2nIH9Rnh6OpdJeUkmnJ7-98" value="source" style="rounded=1;whiteSpace=wrap;html=1;fillColor=#dae8fc;strokeColor=none;fontStyle=1" vertex="1" parent="1">
          <mxGeometry x="520" y="1302" width="60" height="30" as="geometry" />
        </mxCell>
        <mxCell id="2nIH9Rnh6OpdJeUkmnJ7-99" value="string" style="rounded=1;whiteSpace=wrap;html=1;fillColor=#e1d5e7;strokeColor=none;fontStyle=1" vertex="1" parent="1">
          <mxGeometry x="590" y="1302" width="76" height="30" as="geometry" />
        </mxCell>
        <mxCell id="2nIH9Rnh6OpdJeUkmnJ7-100" value="target" style="rounded=1;whiteSpace=wrap;html=1;fillColor=#dae8fc;strokeColor=none;fontStyle=1" vertex="1" parent="1">
          <mxGeometry x="520" y="1340" width="60" height="30" as="geometry" />
        </mxCell>
        <mxCell id="2nIH9Rnh6OpdJeUkmnJ7-101" value="string" style="rounded=1;whiteSpace=wrap;html=1;fillColor=#e1d5e7;strokeColor=none;fontStyle=1" vertex="1" parent="1">
          <mxGeometry x="590" y="1340" width="76" height="30" as="geometry" />
        </mxCell>
        <mxCell id="2nIH9Rnh6OpdJeUkmnJ7-102" value="sourceHandle" style="rounded=1;whiteSpace=wrap;html=1;fillColor=#dae8fc;strokeColor=none;fontStyle=1" vertex="1" parent="1">
          <mxGeometry x="520" y="1380" width="100" height="30" as="geometry" />
        </mxCell>
        <mxCell id="2nIH9Rnh6OpdJeUkmnJ7-103" value="string" style="rounded=1;whiteSpace=wrap;html=1;fillColor=#e1d5e7;strokeColor=none;fontStyle=1" vertex="1" parent="1">
          <mxGeometry x="630" y="1380" width="76" height="30" as="geometry" />
        </mxCell>
        <mxCell id="2nIH9Rnh6OpdJeUkmnJ7-104" value="targetHandle" style="rounded=1;whiteSpace=wrap;html=1;fillColor=#dae8fc;strokeColor=none;fontStyle=1" vertex="1" parent="1">
          <mxGeometry x="520" y="1420" width="100" height="30" as="geometry" />
        </mxCell>
        <mxCell id="2nIH9Rnh6OpdJeUkmnJ7-105" value="string" style="rounded=1;whiteSpace=wrap;html=1;fillColor=#e1d5e7;strokeColor=none;fontStyle=1" vertex="1" parent="1">
          <mxGeometry x="630" y="1420" width="76" height="30" as="geometry" />
        </mxCell>
        <mxCell id="2nIH9Rnh6OpdJeUkmnJ7-106" value="От какой ноды отходит линия" style="rounded=1;whiteSpace=wrap;html=1;fillColor=#d5e8d4;strokeColor=none;fontStyle=1" vertex="1" parent="1">
          <mxGeometry x="676" y="1302" width="194" height="30" as="geometry" />
        </mxCell>
        <mxCell id="2nIH9Rnh6OpdJeUkmnJ7-107" value="К какой ноде идет линия" style="rounded=1;whiteSpace=wrap;html=1;fillColor=#d5e8d4;strokeColor=none;fontStyle=1" vertex="1" parent="1">
          <mxGeometry x="676" y="1340" width="174" height="30" as="geometry" />
        </mxCell>
        <mxCell id="2nIH9Rnh6OpdJeUkmnJ7-108" value="От какой точки ноды отходит линия" style="rounded=1;whiteSpace=wrap;html=1;fillColor=#d5e8d4;strokeColor=none;fontStyle=1" vertex="1" parent="1">
          <mxGeometry x="720" y="1380" width="230" height="30" as="geometry" />
        </mxCell>
        <mxCell id="2nIH9Rnh6OpdJeUkmnJ7-109" value="К какой точке ноды идет линия" style="rounded=1;whiteSpace=wrap;html=1;fillColor=#d5e8d4;strokeColor=none;fontStyle=1" vertex="1" parent="1">
          <mxGeometry x="720" y="1420" width="220" height="30" as="geometry" />
        </mxCell>
        <mxCell id="2nIH9Rnh6OpdJeUkmnJ7-114" value="" style="rounded=0;whiteSpace=wrap;html=1;fontFamily=Helvetica;fontSize=11;fillColor=none;dashed=1;dashPattern=8 8;strokeColor=#6c8ebf;shadow=0;" vertex="1" parent="1">
          <mxGeometry x="-60" y="1023" width="1040" height="447" as="geometry" />
        </mxCell>
      </root>
    </mxGraphModel>
  </diagram>
</mxfile>
